<?xml version="1.0" encoding="UTF-8" standalone="no"?><!DOCTYPE svg PUBLIC "-//W3C//DTD SVG 1.1//EN" "http://www.w3.org/Graphics/SVG/1.1/DTD/svg11.dtd"><svg width="100%" height="100%" viewBox="0 0 16 16" version="1.1" xmlns="http://www.w3.org/2000/svg" xmlns:xlink="http://www.w3.org/1999/xlink" xml:space="preserve" xmlns:serif="http://www.serif.com/" style="fill-rule:evenodd;clip-rule:evenodd;stroke-linejoin:round;stroke-miterlimit:2;"><g id="ic-editor"><rect x="0" y="0" width="16" height="16" style="fill:none;"/><path d="M10.548,0.019c0.449,0.143 0.882,0.324 1.294,0.537c0.156,0.081 0.236,0.249 0.201,0.421c-0.165,0.803 0.063,1.671 0.686,2.294c0.623,0.623 1.491,0.852 2.294,0.686c0.172,-0.035 0.34,0.045 0.421,0.201c0.214,0.413 0.394,0.845 0.537,1.294c0.054,0.168 -0.009,0.343 -0.155,0.44c-0.686,0.451 -1.138,1.227 -1.138,2.108c0,0.881 0.452,1.657 1.138,2.108c0.146,0.096 0.209,0.272 0.155,0.44c-0.143,0.449 -0.323,0.882 -0.537,1.294c-0.081,0.156 -0.249,0.236 -0.421,0.201c-0.803,-0.165 -1.671,0.063 -2.294,0.686c-0.623,0.623 -0.851,1.491 -0.686,2.294c0.035,0.172 -0.045,0.34 -0.201,0.421c-0.413,0.214 -0.845,0.394 -1.294,0.537c-0.168,0.053 -0.344,-0.009 -0.44,-0.156c-0.451,-0.685 -1.227,-1.137 -2.108,-1.137c-0.881,0 -1.657,0.452 -2.108,1.137c-0.096,0.147 -0.272,0.209 -0.439,0.156c-0.45,-0.143 -0.883,-0.324 -1.295,-0.537c-0.156,-0.081 -0.236,-0.249 -0.201,-0.421c0.166,-0.803 -0.063,-1.671 -0.686,-2.294c-0.623,-0.623 -1.491,-0.851 -2.294,-0.686c-0.172,0.035 -0.34,-0.045 -0.421,-0.201c-0.214,-0.413 -0.394,-0.845 -0.537,-1.295c-0.053,-0.167 0.009,-0.343 0.155,-0.439c0.686,-0.451 1.138,-1.227 1.138,-2.108c-0,-0.881 -0.452,-1.657 -1.138,-2.108c-0.146,-0.096 -0.208,-0.272 -0.155,-0.44c0.143,-0.449 0.323,-0.882 0.537,-1.294c0.081,-0.156 0.249,-0.236 0.421,-0.201c0.803,0.166 1.671,-0.063 2.294,-0.686c0.623,-0.623 0.851,-1.491 0.686,-2.294c-0.035,-0.172 0.045,-0.34 0.201,-0.421c0.412,-0.213 0.845,-0.394 1.295,-0.537c0.167,-0.053 0.343,0.009 0.439,0.156c0.451,0.684 1.227,1.137 2.108,1.137c0.881,0 1.657,-0.453 2.108,-1.137c0.096,-0.147 0.272,-0.209 0.44,-0.156Zm-1.174,4.839c0.656,0.442 1.087,1.191 1.087,2.041c-0,0.956 -0.545,1.784 -1.341,2.192c-0.085,0.044 -0.136,0.126 -0.136,0.222l0,2.793c-0.316,0.075 -0.645,0.116 -0.984,0.116c-0.339,-0 -0.669,-0.04 -0.984,-0.116l-0,-2.793c-0,-0.096 -0.051,-0.178 -0.136,-0.222c-0.796,-0.408 -1.341,-1.236 -1.341,-2.192c-0,-0.85 0.431,-1.599 1.087,-2.041c0.079,-0.053 0.173,-0.058 0.257,-0.014c0.084,0.045 0.133,0.126 0.133,0.221l-0,2.147c-0,0.138 0.112,0.25 0.249,0.25l1.469,-0c0.138,-0 0.25,-0.112 0.25,-0.25l0,-2.147c0,-0.095 0.049,-0.176 0.133,-0.221c0.084,-0.044 0.178,-0.039 0.257,0.014Zm-1.374,-1.661c2.652,0 4.803,2.151 4.803,4.803c-0,2.652 -2.151,4.803 -4.803,4.803c-2.652,-0 -4.803,-2.151 -4.803,-4.803c0,-2.652 2.151,-4.803 4.803,-4.803Z" style="fill:#fff;"/></g></svg>